<svg xmlns="http://www.w3.org/2000/svg" width="50.201" height="50.201" viewBox="0 0 50.201 50.201">
  <path id="Icon_simple-instagram" data-name="Icon simple-instagram" d="M25.1,0c-6.819,0-7.67.031-10.348.151A18.508,18.508,0,0,0,8.66,1.318,12.292,12.292,0,0,0,4.213,4.213,12.247,12.247,0,0,0,1.318,8.66,18.454,18.454,0,0,0,.151,14.753C.025,17.43,0,18.281,0,25.1s.031,7.67.151,10.348a18.52,18.52,0,0,0,1.167,6.093,12.309,12.309,0,0,0,2.895,4.447A12.274,12.274,0,0,0,8.66,48.883a18.532,18.532,0,0,0,6.093,1.167c2.677.125,3.529.151,10.348.151s7.67-.031,10.348-.151a18.574,18.574,0,0,0,6.093-1.167,12.828,12.828,0,0,0,7.342-7.342,18.52,18.52,0,0,0,1.167-6.093c.125-2.677.151-3.529.151-10.348s-.031-7.67-.151-10.348A18.563,18.563,0,0,0,48.883,8.66a12.319,12.319,0,0,0-2.895-4.447,12.23,12.23,0,0,0-4.447-2.895A18.466,18.466,0,0,0,35.448.151C32.771.025,31.919,0,25.1,0Zm0,4.518c6.7,0,7.5.033,10.145.149a13.829,13.829,0,0,1,4.658.868A8.26,8.26,0,0,1,44.668,10.3a13.858,13.858,0,0,1,.864,4.658c.119,2.648.146,3.443.146,10.145s-.031,7.5-.155,10.145a14.125,14.125,0,0,1-.881,4.658,7.97,7.97,0,0,1-1.88,2.891,7.831,7.831,0,0,1-2.887,1.874,13.96,13.96,0,0,1-4.675.864c-2.665.119-3.449.146-10.164.146s-7.5-.031-10.164-.155a14.233,14.233,0,0,1-4.677-.881,7.773,7.773,0,0,1-2.884-1.88A7.622,7.622,0,0,1,5.43,39.876,14.245,14.245,0,0,1,4.552,35.2c-.094-2.636-.128-3.449-.128-10.132s.033-7.5.128-10.168a14.229,14.229,0,0,1,.879-4.673A7.441,7.441,0,0,1,7.313,7.34,7.424,7.424,0,0,1,10.2,5.461a13.892,13.892,0,0,1,4.646-.881c2.667-.094,3.451-.126,10.164-.126l.094.063Zm0,7.693A12.889,12.889,0,1,0,37.989,25.1,12.888,12.888,0,0,0,25.1,12.211Zm0,21.256A8.367,8.367,0,1,1,33.467,25.1,8.364,8.364,0,0,1,25.1,33.467ZM41.512,11.7A3.012,3.012,0,1,1,38.5,8.693,3.014,3.014,0,0,1,41.512,11.7Z" fill="#ad1e33"/>
</svg>
