<svg xmlns="http://www.w3.org/2000/svg" width="52.566" height="51.234" viewBox="0 0 52.566 51.234">
  <path id="Icon_awesome-arrow-left" data-name="Icon awesome-arrow-left" d="M30.212,50.45l-2.6,2.6a2.8,2.8,0,0,1-3.977,0L.824,30.259a2.8,2.8,0,0,1,0-3.977L23.631,3.474a2.8,2.8,0,0,1,3.977,0l2.6,2.6a2.819,2.819,0,0,1-.047,4.024L16.028,23.571H49.746a2.809,2.809,0,0,1,2.816,2.816v3.754a2.809,2.809,0,0,1-2.816,2.816H16.028L30.166,46.425A2.8,2.8,0,0,1,30.212,50.45Z" transform="translate(0.004 -2.647)" fill="#ad1e33"/>
</svg>
