<svg xmlns="http://www.w3.org/2000/svg" width="42.216" height="42.215" viewBox="0 0 42.216 42.215">
  <path id="Icon_awesome-linkedin-in" data-name="Icon awesome-linkedin-in" d="M9.45,42.215H.7V14.031H9.45ZM5.069,10.186a5.093,5.093,0,1,1,5.069-5.117A5.111,5.111,0,0,1,5.069,10.186ZM42.206,42.215H33.473V28.5c0-3.27-.066-7.463-4.55-7.463-4.55,0-5.248,3.553-5.248,7.228V42.215H14.932V14.031h8.394v3.845h.122a9.2,9.2,0,0,1,8.281-4.551c8.858,0,10.486,5.833,10.486,13.409V42.215Z" transform="translate(0 -0.001)" fill="#ad1e33"/>
</svg>
