<svg id="Layer_1" data-name="Layer 1" xmlns="http://www.w3.org/2000/svg" viewBox="0 0 131.68 136"><defs><style>.cls-1{fill:#ffd2d1;}</style></defs><path class="cls-1" d="M102.18,70.78c2.24,0,3.65,1.11,5.11-.34a4.6,4.6,0,0,1,2.8-1.4c.67,0,1.4-.68,1.4,0,0,4.37-9.19,12.84-17.94,12.84-7.4,0-10.87-5-10.87-12.44,0-7.18,4.37-23.43,7.4-34.42h-.9c-4.26,9.76-15.24,32.06-19.06,43.61-.56,1.9-1.34,3.25-3,3.25H58.35c-1.34,0-2.24-.56-2.24-2.47,0-1.23,2.24-34.63,2.24-44.39h-.89C54.1,52.62,47.15,86.14,23.38,86.14c-10.09,0-15.13-6.84-15.13-14.69,0-8.18,8.41-14.34,12.67-14.34,1.12,0,1.57.56,1.57,1.34,0,1.35-.79,2.24-.79,4.82A5.59,5.59,0,0,0,27.64,69c15.69,0,23.88-37.33,23.88-49.55,0-3.47-2.47-6.16-5.27-6.16-6.28,0-14.8,9.86-14.8,18.94,0,3.7,2.13,5.38,4.49,5.38,1.45,0,2.8-.9,3.47-.9a1.12,1.12,0,0,1,1.23,1.24c0,3.36-6,11.43-14.34,11.43-6.62,0-11.66-4.93-11.66-12.78C14.64,17.54,33.92,7,47.93,7,71.25,7,72.14,29.53,72.14,45.9c0,5.49-.11,9.41-.11,9.52C72.7,53.74,87.28,21,92.21,15c1.9-2.47,9.52-5.27,17-5.27a1.88,1.88,0,0,1,2,2c0,1.23-2.13,3.92-3.47,7.4-3.7,9.52-9.64,38-9.64,45.51C98.15,68.54,99.72,70.78,102.18,70.78Z" transform="translate(-8.25 -7)"/><path class="cls-1" d="M106.41,133.36c11,0,19.28-18.94,19.28-35.42,0-8.86-4-11.55-8.63-11.55a13,13,0,0,0-6.39,1.68c-1,.57-1.45.9-2.13.9s-1-.45-1-1.23c0-1.68,2.25-5.83,6.39-8.63a18.46,18.46,0,0,1,11.44-3.59c8.4,0,14.57,5.72,14.57,17.6,0,24.44-17,49.88-37.66,49.88-14.57,0-25.67-9.08-25.67-27.35,0-34,25.22-48.2,42.93-48.2,7.06,0,10.2,1.57,10.2,3.25,0,.67-.45,1.12-1.46,1.12s-2.58-.22-5.38-.22c-14.46,0-26.79,15.24-26.79,42.48C96.1,127.53,100.59,133.36,106.41,133.36Z" transform="translate(-8.25 -7)"/></svg>