<svg id="Layer_1" data-name="Layer 1" xmlns="http://www.w3.org/2000/svg" viewBox="0 0 277.5 286.6"><defs><style>.cls-1{fill:#bc002e;}</style></defs><path class="cls-1" d="M209.45,141.41c4.73,0,7.69,2.34,10.76-.73a9.75,9.75,0,0,1,5.9-3c1.42,0,3-1.42,3,0,0,9.21-19.38,27.06-37.8,27.06-15.6,0-22.92-10.63-22.92-26.22,0-15.11,9.21-49.37,15.59-72.52h-1.89c-9,20.55-32.12,67.56-40.15,91.89-1.18,4-2.84,6.85-6.38,6.85H117.09c-2.83,0-4.72-1.18-4.72-5.19,0-2.6,4.72-73,4.72-93.55H115.2c-7.08,37.09-21.73,107.72-71.81,107.72-21.26,0-31.89-14.41-31.89-31,0-17.24,17.72-30.23,26.7-30.23,2.36,0,3.3,1.18,3.3,2.83,0,2.84-1.65,4.73-1.65,10.16,0,5.91,4,12,12.52,12,33.07,0,50.31-78.66,50.31-104.41,0-7.32-5.19-13-11.1-13C78.35,20.23,60.4,41,60.4,60.15c0,7.79,4.49,11.34,9.45,11.34,3.07,0,5.9-1.89,7.32-1.89a2.36,2.36,0,0,1,2.6,2.59c0,7.09-12.76,24.1-30.23,24.1C35.6,96.29,25,85.9,25,69.36,25,29.2,65.6,7,95.13,7c49.13,0,51,47.48,51,82,0,11.57-.24,19.84-.24,20.08,1.42-3.55,32.13-72.52,42.52-85.28,4-5.2,20.08-11.1,35.91-11.1a4,4,0,0,1,4.25,4.25c0,2.6-4.49,8.27-7.33,15.59C213.47,52.59,201,112.59,201,128.41,201,136.68,204.26,141.41,209.45,141.41Z" transform="translate(-11.5 -7)"/><path class="cls-1" d="M218.37,273.28c23.15,0,40.63-39.92,40.63-74.64,0-18.66-8.51-24.33-18.19-24.33a27.07,27.07,0,0,0-13.46,3.54c-2.13,1.18-3.07,1.89-4.49,1.89s-2.13-.94-2.13-2.6c0-3.54,4.73-12.28,13.47-18.19a38.91,38.91,0,0,1,24.09-7.56c17.72,0,30.71,12.05,30.71,37.09,0,51.5-35.91,105.12-79.37,105.12-30.71,0-54.09-19.14-54.09-57.64,0-71.57,53.14-101.57,90.47-101.57,14.88,0,21.49,3.3,21.49,6.85,0,1.41-.94,2.36-3.07,2.36-1.89,0-5.43-.47-11.34-.47-30.47,0-56.45,32.12-56.45,89.52C196.64,261,206.09,273.28,218.37,273.28Z" transform="translate(-11.5 -7)"/></svg>